<svg width="1920" height="1080" xmlns="http://www.w3.org/2000/svg"><path d="M904,568L1019,446L868,488Z" fill="rgb(48,167,229)" stroke="rgb(48,167,229)" stroke-width="1.51"></path><path d="M904,568L1000,589L1019,446Z" fill="rgb(17,163,226)" stroke="rgb(17,163,226)" stroke-width="1.51"></path><path d="M1019,446L909,348L868,488Z" fill="rgb(75,173,231)" stroke="rgb(75,173,231)" stroke-width="1.51"></path><path d="M1000,589L1141,498L1019,446Z" fill="rgb(50,162,220)" stroke="rgb(50,162,220)" stroke-width="1.51"></path><path d="M1019,446L1037,299L909,348Z" fill="rgb(91,176,230)" stroke="rgb(91,176,230)" stroke-width="1.51"></path><path d="M1149,378L1037,299L1019,446Z" fill="rgb(93,172,222)" stroke="rgb(93,172,222)" stroke-width="1.51"></path><path d="M868,488L784,638L904,568Z" fill="rgb(56,166,225)" stroke="rgb(56,166,225)" stroke-width="1.51"></path><path d="M904,568L894,722L1000,589Z" fill="rgb(53,158,214)" stroke="rgb(53,158,214)" stroke-width="1.51"></path><path d="M728,506L784,638L868,488Z" fill="rgb(64,170,229)" stroke="rgb(64,170,229)" stroke-width="1.51"></path><path d="M750,380L728,506L868,488Z" fill="rgb(91,177,232)" stroke="rgb(91,177,232)" stroke-width="1.51"></path><path d="M1141,498L1149,378L1019,446Z" fill="rgb(79,165,217)" stroke="rgb(79,165,217)" stroke-width="1.51"></path><path d="M784,638L894,722L904,568Z" fill="rgb(70,160,213)" stroke="rgb(70,160,213)" stroke-width="1.51"></path><path d="M1000,589L1182,587L1141,498Z" fill="rgb(49,156,212)" stroke="rgb(49,156,212)" stroke-width="1.51"></path><path d="M909,348L750,380L868,488Z" fill="rgb(95,179,233)" stroke="rgb(95,179,233)" stroke-width="1.51"></path><path d="M852,197L750,380L909,348Z" fill="rgb(119,187,235)" stroke="rgb(119,187,235)" stroke-width="1.51"></path><path d="M1040,759L1182,587L1000,589Z" fill="rgb(63,151,202)" stroke="rgb(63,151,202)" stroke-width="1.51"></path><path d="M1141,498L1294,485L1149,378Z" fill="rgb(82,161,210)" stroke="rgb(82,161,210)" stroke-width="1.51"></path><path d="M894,722L1040,759L1000,589Z" fill="rgb(62,152,203)" stroke="rgb(62,152,203)" stroke-width="1.51"></path><path d="M1037,299L1041,222L909,348Z" fill="rgb(109,182,231)" stroke="rgb(109,182,231)" stroke-width="1.51"></path><path d="M1127,159L1041,222L1037,299Z" fill="rgb(126,185,227)" stroke="rgb(126,185,227)" stroke-width="1.51"></path><path d="M728,506L668,578L784,638Z" fill="rgb(81,171,225)" stroke="rgb(81,171,225)" stroke-width="1.51"></path><path d="M784,638L716,715L894,722Z" fill="rgb(85,160,207)" stroke="rgb(85,160,207)" stroke-width="1.51"></path><path d="M647,427L668,578L728,506Z" fill="rgb(93,179,233)" stroke="rgb(93,179,233)" stroke-width="1.51"></path><path d="M750,380L647,427L728,506Z" fill="rgb(106,183,234)" stroke="rgb(106,183,234)" stroke-width="1.51"></path><path d="M580,351L647,427L750,380Z" fill="rgb(124,189,236)" stroke="rgb(124,189,236)" stroke-width="1.51"></path><path d="M1041,222L852,197L909,348Z" fill="rgb(118,187,235)" stroke="rgb(118,187,235)" stroke-width="1.51"></path><path d="M668,578L716,715L784,638Z" fill="rgb(90,167,215)" stroke="rgb(90,167,215)" stroke-width="1.51"></path><path d="M894,722L903,834L1040,759Z" fill="rgb(74,148,193)" stroke="rgb(74,148,193)" stroke-width="1.51"></path><path d="M758,876L903,834L894,722Z" fill="rgb(91,150,188)" stroke="rgb(91,150,188)" stroke-width="1.51"></path><path d="M1182,587L1294,485L1141,498Z" fill="rgb(63,155,207)" stroke="rgb(63,155,207)" stroke-width="1.51"></path><path d="M1149,378L1127,159L1037,299Z" fill="rgb(117,179,222)" stroke="rgb(117,179,222)" stroke-width="1.51"></path><path d="M1317,611L1294,485L1182,587Z" fill="rgb(67,150,198)" stroke="rgb(67,150,198)" stroke-width="1.51"></path><path d="M1040,759L1193,777L1182,587Z" fill="rgb(76,145,187)" stroke="rgb(76,145,187)" stroke-width="1.51"></path><path d="M903,834L1015,840L1040,759Z" fill="rgb(79,144,184)" stroke="rgb(79,144,184)" stroke-width="1.51"></path><path d="M716,715L758,876L894,722Z" fill="rgb(94,155,195)" stroke="rgb(94,155,195)" stroke-width="1.51"></path><path d="M668,578L662,717L716,715Z" fill="rgb(99,167,212)" stroke="rgb(99,167,212)" stroke-width="1.51"></path><path d="M444,584L662,717L668,578Z" fill="rgb(106,174,219)" stroke="rgb(106,174,219)" stroke-width="1.51"></path><path d="M1129,856L1193,777L1040,759Z" fill="rgb(84,140,175)" stroke="rgb(84,140,175)" stroke-width="1.51"></path><path d="M1193,777L1253,717L1182,587Z" fill="rgb(80,143,183)" stroke="rgb(80,143,183)" stroke-width="1.51"></path><path d="M1307,206L1127,159L1149,378Z" fill="rgb(127,178,215)" stroke="rgb(127,178,215)" stroke-width="1.51"></path><path d="M1041,222L925,105L852,197Z" fill="rgb(134,194,237)" stroke="rgb(134,194,237)" stroke-width="1.51"></path><path d="M1253,717L1317,611L1182,587Z" fill="rgb(75,145,188)" stroke="rgb(75,145,188)" stroke-width="1.51"></path><path d="M1012,105L925,105L1041,222Z" fill="rgb(139,195,235)" stroke="rgb(139,195,235)" stroke-width="1.51"></path><path d="M622,205L580,351L750,380Z" fill="rgb(140,196,238)" stroke="rgb(140,196,238)" stroke-width="1.51"></path><path d="M1294,485L1326,370L1149,378Z" fill="rgb(96,162,205)" stroke="rgb(96,162,205)" stroke-width="1.51"></path><path d="M1447,479L1326,370L1294,485Z" fill="rgb(94,156,196)" stroke="rgb(94,156,196)" stroke-width="1.51"></path><path d="M1127,159L1012,105L1041,222Z" fill="rgb(138,190,229)" stroke="rgb(138,190,229)" stroke-width="1.51"></path><path d="M1015,840L1129,856L1040,759Z" fill="rgb(83,140,177)" stroke="rgb(83,140,177)" stroke-width="1.51"></path><path d="M1193,777L1299,884L1253,717Z" fill="rgb(89,135,166)" stroke="rgb(89,135,166)" stroke-width="1.51"></path><path d="M1124,1015L1129,856L1015,840Z" fill="rgb(91,134,163)" stroke="rgb(91,134,163)" stroke-width="1.51"></path><path d="M715,171L750,380L852,197Z" fill="rgb(139,195,238)" stroke="rgb(139,195,238)" stroke-width="1.51"></path><path d="M647,427L512,472L668,578Z" fill="rgb(106,183,234)" stroke="rgb(106,183,234)" stroke-width="1.51"></path><path d="M764,75L715,171L852,197Z" fill="rgb(157,204,241)" stroke="rgb(157,204,241)" stroke-width="1.51"></path><path d="M613,832L758,876L716,715Z" fill="rgb(108,157,191)" stroke="rgb(108,157,191)" stroke-width="1.51"></path><path d="M903,834L994,1038L1015,840Z" fill="rgb(86,139,172)" stroke="rgb(86,139,172)" stroke-width="1.51"></path><path d="M580,351L512,472L647,427Z" fill="rgb(126,190,237)" stroke="rgb(126,190,237)" stroke-width="1.51"></path><path d="M662,717L613,832L716,715Z" fill="rgb(108,162,199)" stroke="rgb(108,162,199)" stroke-width="1.51"></path><path d="M580,351L519,366L512,472Z" fill="rgb(135,195,238)" stroke="rgb(135,195,238)" stroke-width="1.51"></path><path d="M715,171L622,205L750,380Z" fill="rgb(146,199,239)" stroke="rgb(146,199,239)" stroke-width="1.51"></path><path d="M1127,159L1158,105L1012,105Z" fill="rgb(147,192,227)" stroke="rgb(147,192,227)" stroke-width="1.51"></path><path d="M1307,206L1158,105L1127,159Z" fill="rgb(143,185,217)" stroke="rgb(143,185,217)" stroke-width="1.51"></path><path d="M622,205L519,366L580,351Z" fill="rgb(149,200,240)" stroke="rgb(149,200,240)" stroke-width="1.51"></path><path d="M1326,370L1307,206L1149,378Z" fill="rgb(115,170,208)" stroke="rgb(115,170,208)" stroke-width="1.51"></path><path d="M715,171L628,67L622,205Z" fill="rgb(169,210,242)" stroke="rgb(169,210,242)" stroke-width="1.51"></path><path d="M925,105L764,75L852,197Z" fill="rgb(154,203,240)" stroke="rgb(154,203,240)" stroke-width="1.51"></path><path d="M748,-60L764,75L923,-99Z" fill="rgb(180,215,244)" stroke="rgb(180,215,244)" stroke-width="1.51"></path><path d="M764,75L925,105L923,-99Z" fill="rgb(169,210,242)" stroke="rgb(169,210,242)" stroke-width="1.51"></path><path d="M505,780L613,832L662,717Z" fill="rgb(117,164,197)" stroke="rgb(117,164,197)" stroke-width="1.51"></path><path d="M1317,611L1447,479L1294,485Z" fill="rgb(74,149,195)" stroke="rgb(74,149,195)" stroke-width="1.51"></path><path d="M1326,370L1387,215L1307,206Z" fill="rgb(128,171,202)" stroke="rgb(128,171,202)" stroke-width="1.51"></path><path d="M1473,644L1447,479L1317,611Z" fill="rgb(79,143,184)" stroke="rgb(79,143,184)" stroke-width="1.51"></path><path d="M1447,479L1432,375L1326,370Z" fill="rgb(103,157,193)" stroke="rgb(103,157,193)" stroke-width="1.51"></path><path d="M512,472L444,584L668,578Z" fill="rgb(105,182,233)" stroke="rgb(105,182,233)" stroke-width="1.51"></path><path d="M363,574L444,584L512,472Z" fill="rgb(117,187,235)" stroke="rgb(117,187,235)" stroke-width="1.51"></path><path d="M1158,105L1053,-106L1012,105Z" fill="rgb(162,200,231)" stroke="rgb(162,200,231)" stroke-width="1.51"></path><path d="M1307,206L1261,82L1158,105Z" fill="rgb(149,186,214)" stroke="rgb(149,186,214)" stroke-width="1.51"></path><path d="M1406,72L1261,82L1307,206Z" fill="rgb(153,184,207)" stroke="rgb(153,184,207)" stroke-width="1.51"></path><path d="M1473,720L1473,644L1317,611Z" fill="rgb(86,138,171)" stroke="rgb(86,138,171)" stroke-width="1.51"></path><path d="M1129,856L1299,884L1193,777Z" fill="rgb(91,134,163)" stroke="rgb(91,134,163)" stroke-width="1.51"></path><path d="M1275,972L1299,884L1129,856Z" fill="rgb(96,129,151)" stroke="rgb(96,129,151)" stroke-width="1.51"></path><path d="M1432,375L1387,215L1326,370Z" fill="rgb(119,165,197)" stroke="rgb(119,165,197)" stroke-width="1.51"></path><path d="M444,584L505,780L662,717Z" fill="rgb(117,173,210)" stroke="rgb(117,173,210)" stroke-width="1.51"></path><path d="M758,876L772,1001L903,834Z" fill="rgb(102,146,176)" stroke="rgb(102,146,176)" stroke-width="1.51"></path><path d="M586,971L772,1001L758,876Z" fill="rgb(114,148,170)" stroke="rgb(114,148,170)" stroke-width="1.51"></path><path d="M586,971L758,876L613,832Z" fill="rgb(117,154,179)" stroke="rgb(117,154,179)" stroke-width="1.51"></path><path d="M764,75L628,67L715,171Z" fill="rgb(172,212,243)" stroke="rgb(172,212,243)" stroke-width="1.51"></path><path d="M622,205L445,175L519,366Z" fill="rgb(164,207,242)" stroke="rgb(164,207,242)" stroke-width="1.51"></path><path d="M748,-60L628,67L764,75Z" fill="rgb(184,218,245)" stroke="rgb(184,218,245)" stroke-width="1.51"></path><path d="M1473,720L1317,611L1253,717Z" fill="rgb(85,139,173)" stroke="rgb(85,139,173)" stroke-width="1.51"></path><path d="M1565,437L1548,349L1432,375Z" fill="rgb(112,154,184)" stroke="rgb(112,154,184)" stroke-width="1.51"></path><path d="M882,1039L994,1038L903,834Z" fill="rgb(94,136,164)" stroke="rgb(94,136,164)" stroke-width="1.51"></path><path d="M994,1038L1124,1015L1015,840Z" fill="rgb(93,132,158)" stroke="rgb(93,132,158)" stroke-width="1.51"></path><path d="M772,1001L882,1039L903,834Z" fill="rgb(101,140,167)" stroke="rgb(101,140,167)" stroke-width="1.51"></path><path d="M1299,884L1473,720L1253,717Z" fill="rgb(92,133,161)" stroke="rgb(92,133,161)" stroke-width="1.51"></path><path d="M1299,884L1450,911L1473,720Z" fill="rgb(97,127,146)" stroke="rgb(97,127,146)" stroke-width="1.51"></path><path d="M1124,1015L1275,972L1129,856Z" fill="rgb(96,128,149)" stroke="rgb(96,128,149)" stroke-width="1.51"></path><path d="M505,780L528,886L613,832Z" fill="rgb(124,162,189)" stroke="rgb(124,162,189)" stroke-width="1.51"></path><path d="M346,921L528,886L505,780Z" fill="rgb(134,164,186)" stroke="rgb(134,164,186)" stroke-width="1.51"></path><path d="M444,584L388,737L505,780Z" fill="rgb(128,176,210)" stroke="rgb(128,176,210)" stroke-width="1.51"></path><path d="M313,476L363,574L512,472Z" fill="rgb(129,192,237)" stroke="rgb(129,192,237)" stroke-width="1.51"></path><path d="M343,323L512,472L519,366Z" fill="rgb(146,199,239)" stroke="rgb(146,199,239)" stroke-width="1.51"></path><path d="M1261,82L1200,-42L1158,105Z" fill="rgb(163,194,219)" stroke="rgb(163,194,219)" stroke-width="1.51"></path><path d="M1339,-37L1200,-42L1261,82Z" fill="rgb(172,196,215)" stroke="rgb(172,196,215)" stroke-width="1.51"></path><path d="M923,-99L925,105L1012,105Z" fill="rgb(159,205,240)" stroke="rgb(159,205,240)" stroke-width="1.51"></path><path d="M1053,-106L923,-99L1012,105Z" fill="rgb(166,206,238)" stroke="rgb(166,206,238)" stroke-width="1.51"></path><path d="M772,1001L863,1141L882,1039Z" fill="rgb(107,134,152)" stroke="rgb(107,134,152)" stroke-width="1.51"></path><path d="M528,886L586,971L613,832Z" fill="rgb(124,157,180)" stroke="rgb(124,157,180)" stroke-width="1.51"></path><path d="M519,35L622,205L628,67Z" fill="rgb(184,217,244)" stroke="rgb(184,217,244)" stroke-width="1.51"></path><path d="M519,35L445,175L622,205Z" fill="rgb(183,217,244)" stroke="rgb(183,217,244)" stroke-width="1.51"></path><path d="M1200,-42L1053,-106L1158,105Z" fill="rgb(169,201,226)" stroke="rgb(169,201,226)" stroke-width="1.51"></path><path d="M528,886L510,1041L586,971Z" fill="rgb(131,154,170)" stroke="rgb(131,154,170)" stroke-width="1.51"></path><path d="M363,574L388,737L444,584Z" fill="rgb(128,183,221)" stroke="rgb(128,183,221)" stroke-width="1.51"></path><path d="M1387,215L1406,72L1307,206Z" fill="rgb(147,178,203)" stroke="rgb(147,178,203)" stroke-width="1.51"></path><path d="M1432,375L1548,349L1387,215Z" fill="rgb(123,163,191)" stroke="rgb(123,163,191)" stroke-width="1.51"></path><path d="M1565,437L1432,375L1447,479Z" fill="rgb(102,152,186)" stroke="rgb(102,152,186)" stroke-width="1.51"></path><path d="M1565,437L1447,479L1574,571Z" fill="rgb(91,145,180)" stroke="rgb(91,145,180)" stroke-width="1.51"></path><path d="M1574,571L1447,479L1473,644Z" fill="rgb(82,141,179)" stroke="rgb(82,141,179)" stroke-width="1.51"></path><path d="M1601,161L1406,72L1387,215Z" fill="rgb(151,176,195)" stroke="rgb(151,176,195)" stroke-width="1.51"></path><path d="M1570,763L1574,571L1473,644Z" fill="rgb(92,133,161)" stroke="rgb(92,133,161)" stroke-width="1.51"></path><path d="M1124,1015L1176,1147L1275,972Z" fill="rgb(100,121,134)" stroke="rgb(100,121,134)" stroke-width="1.51"></path><path d="M994,1038L1066,1120L1124,1015Z" fill="rgb(98,125,143)" stroke="rgb(98,125,143)" stroke-width="1.51"></path><path d="M863,1141L1066,1120L994,1038Z" fill="rgb(97,127,147)" stroke="rgb(97,127,147)" stroke-width="1.51"></path><path d="M863,1141L994,1038L882,1039Z" fill="rgb(100,130,149)" stroke="rgb(100,130,149)" stroke-width="1.51"></path><path d="M445,175L343,323L519,366Z" fill="rgb(167,208,242)" stroke="rgb(167,208,242)" stroke-width="1.51"></path><path d="M445,175L326,172L343,323Z" fill="rgb(185,217,245)" stroke="rgb(185,217,245)" stroke-width="1.51"></path><path d="M657,-96L519,35L628,67Z" fill="rgb(200,225,247)" stroke="rgb(200,225,247)" stroke-width="1.51"></path><path d="M343,323L313,476L512,472Z" fill="rgb(146,199,239)" stroke="rgb(146,199,239)" stroke-width="1.51"></path><path d="M363,574L256,601L388,737Z" fill="rgb(135,185,222)" stroke="rgb(135,185,222)" stroke-width="1.51"></path><path d="M1388,1016L1450,911L1299,884Z" fill="rgb(100,121,135)" stroke="rgb(100,121,135)" stroke-width="1.51"></path><path d="M1473,720L1570,763L1473,644Z" fill="rgb(93,132,157)" stroke="rgb(93,132,157)" stroke-width="1.51"></path><path d="M1388,1016L1299,884L1275,972Z" fill="rgb(100,122,137)" stroke="rgb(100,122,137)" stroke-width="1.51"></path><path d="M754,1160L863,1141L772,1001Z" fill="rgb(111,135,150)" stroke="rgb(111,135,150)" stroke-width="1.51"></path><path d="M1406,72L1339,-37L1261,82Z" fill="rgb(167,190,208)" stroke="rgb(167,190,208)" stroke-width="1.51"></path><path d="M1196,-235L1025,-237L1053,-106Z" fill="rgb(168,203,230)" stroke="rgb(168,203,230)" stroke-width="1.51"></path><path d="M748,-60L657,-96L628,67Z" fill="rgb(193,222,246)" stroke="rgb(193,222,246)" stroke-width="1.51"></path><path d="M781,-183L657,-96L748,-60Z" fill="rgb(188,219,245)" stroke="rgb(188,219,245)" stroke-width="1.51"></path><path d="M781,-183L748,-60L923,-99Z" fill="rgb(179,215,243)" stroke="rgb(179,215,243)" stroke-width="1.51"></path><path d="M1450,911L1570,763L1473,720Z" fill="rgb(97,126,145)" stroke="rgb(97,126,145)" stroke-width="1.51"></path><path d="M1450,911L1593,919L1570,763Z" fill="rgb(101,121,132)" stroke="rgb(101,121,132)" stroke-width="1.51"></path><path d="M1335,1156L1388,1016L1275,972Z" fill="rgb(102,116,123)" stroke="rgb(102,116,123)" stroke-width="1.51"></path><path d="M1066,1120L1176,1147L1124,1015Z" fill="rgb(100,122,135)" stroke="rgb(100,122,135)" stroke-width="1.51"></path><path d="M1171,1246L1176,1147L1066,1120Z" fill="rgb(100,121,134)" stroke="rgb(100,121,134)" stroke-width="1.51"></path><path d="M579,1126L754,1160L772,1001Z" fill="rgb(120,139,151)" stroke="rgb(120,139,151)" stroke-width="1.51"></path><path d="M863,1141L1023,1239L1066,1120Z" fill="rgb(97,127,146)" stroke="rgb(97,127,146)" stroke-width="1.51"></path><path d="M586,971L579,1126L772,1001Z" fill="rgb(123,145,159)" stroke="rgb(123,145,159)" stroke-width="1.51"></path><path d="M346,921L510,1041L528,886Z" fill="rgb(137,159,173)" stroke="rgb(137,159,173)" stroke-width="1.51"></path><path d="M915,-204L923,-99L1053,-106Z" fill="rgb(165,208,241)" stroke="rgb(165,208,241)" stroke-width="1.51"></path><path d="M915,-204L781,-183L923,-99Z" fill="rgb(174,212,243)" stroke="rgb(174,212,243)" stroke-width="1.51"></path><path d="M1025,-237L915,-204L1053,-106Z" fill="rgb(166,206,238)" stroke="rgb(166,206,238)" stroke-width="1.51"></path><path d="M220,489L256,601L313,476Z" fill="rgb(141,197,238)" stroke="rgb(141,197,238)" stroke-width="1.51"></path><path d="M313,476L256,601L363,574Z" fill="rgb(133,192,235)" stroke="rgb(133,192,235)" stroke-width="1.51"></path><path d="M388,737L346,921L505,780Z" fill="rgb(137,169,194)" stroke="rgb(137,169,194)" stroke-width="1.51"></path><path d="M372,67L326,172L445,175Z" fill="rgb(198,224,246)" stroke="rgb(198,224,246)" stroke-width="1.51"></path><path d="M343,323L251,345L313,476Z" fill="rgb(163,207,242)" stroke="rgb(163,207,242)" stroke-width="1.51"></path><path d="M372,67L445,175L519,35Z" fill="rgb(199,225,247)" stroke="rgb(199,225,247)" stroke-width="1.51"></path><path d="M214,235L251,345L343,323Z" fill="rgb(181,215,244)" stroke="rgb(181,215,244)" stroke-width="1.51"></path><path d="M1283,-240L1196,-235L1200,-42Z" fill="rgb(171,197,218)" stroke="rgb(171,197,218)" stroke-width="1.51"></path><path d="M1406,72L1398,-70L1339,-37Z" fill="rgb(174,192,205)" stroke="rgb(174,192,205)" stroke-width="1.51"></path><path d="M1543,-61L1398,-70L1406,72Z" fill="rgb(174,189,199)" stroke="rgb(174,189,199)" stroke-width="1.51"></path><path d="M657,-96L483,-51L519,35Z" fill="rgb(205,228,247)" stroke="rgb(205,228,247)" stroke-width="1.51"></path><path d="M492,-176L483,-51L657,-96Z" fill="rgb(206,228,248)" stroke="rgb(206,228,248)" stroke-width="1.51"></path><path d="M483,-51L372,67L519,35Z" fill="rgb(211,231,248)" stroke="rgb(211,231,248)" stroke-width="1.51"></path><path d="M510,1041L579,1126L586,971Z" fill="rgb(131,147,158)" stroke="rgb(131,147,158)" stroke-width="1.51"></path><path d="M1548,349L1601,161L1387,215Z" fill="rgb(137,166,188)" stroke="rgb(137,166,188)" stroke-width="1.51"></path><path d="M1679,237L1601,161L1548,349Z" fill="rgb(138,162,180)" stroke="rgb(138,162,180)" stroke-width="1.51"></path><path d="M1679,237L1548,349L1715,371Z" fill="rgb(127,155,175)" stroke="rgb(127,155,175)" stroke-width="1.51"></path><path d="M1722,513L1565,437L1574,571Z" fill="rgb(93,141,173)" stroke="rgb(93,141,173)" stroke-width="1.51"></path><path d="M251,345L220,489L313,476Z" fill="rgb(157,204,241)" stroke="rgb(157,204,241)" stroke-width="1.51"></path><path d="M1196,-235L1053,-106L1200,-42Z" fill="rgb(170,201,225)" stroke="rgb(170,201,225)" stroke-width="1.51"></path><path d="M915,-204L630,-221L781,-183Z" fill="rgb(183,217,244)" stroke="rgb(183,217,244)" stroke-width="1.51"></path><path d="M183,873L346,921L388,737Z" fill="rgb(148,173,191)" stroke="rgb(148,173,191)" stroke-width="1.51"></path><path d="M510,1041L485,1143L579,1126Z" fill="rgb(135,147,153)" stroke="rgb(135,147,153)" stroke-width="1.51"></path><path d="M188,704L388,737L256,601Z" fill="rgb(144,185,216)" stroke="rgb(144,185,216)" stroke-width="1.51"></path><path d="M868,1249L863,1141L791,1250Z" fill="rgb(108,133,149)" stroke="rgb(108,133,149)" stroke-width="1.51"></path><path d="M868,1249L1023,1239L863,1141Z" fill="rgb(100,129,148)" stroke="rgb(100,129,148)" stroke-width="1.51"></path><path d="M791,1250L863,1141L754,1160Z" fill="rgb(111,134,150)" stroke="rgb(111,134,150)" stroke-width="1.51"></path><path d="M1543,1021L1593,919L1450,911Z" fill="rgb(102,115,121)" stroke="rgb(102,115,121)" stroke-width="1.51"></path><path d="M1176,1147L1335,1156L1275,972Z" fill="rgb(103,116,124)" stroke="rgb(103,116,124)" stroke-width="1.51"></path><path d="M1284,1269L1335,1156L1176,1147Z" fill="rgb(102,116,124)" stroke="rgb(102,116,124)" stroke-width="1.51"></path><path d="M1720,612L1722,513L1574,571Z" fill="rgb(90,135,164)" stroke="rgb(90,135,164)" stroke-width="1.51"></path><path d="M1543,1021L1450,911L1388,1016Z" fill="rgb(102,116,122)" stroke="rgb(102,116,122)" stroke-width="1.51"></path><path d="M611,1303L791,1250L754,1160Z" fill="rgb(118,138,151)" stroke="rgb(118,138,151)" stroke-width="1.51"></path><path d="M1601,161L1592,71L1406,72Z" fill="rgb(160,177,190)" stroke="rgb(160,177,190)" stroke-width="1.51"></path><path d="M1720,612L1574,571L1570,763Z" fill="rgb(93,131,156)" stroke="rgb(93,131,156)" stroke-width="1.51"></path><path d="M1601,161L1704,33L1592,71Z" fill="rgb(163,174,182)" stroke="rgb(163,174,182)" stroke-width="1.51"></path><path d="M1715,371L1548,349L1565,437Z" fill="rgb(114,151,176)" stroke="rgb(114,151,176)" stroke-width="1.51"></path><path d="M1283,-240L1339,-37L1406,-185Z" fill="rgb(173,193,208)" stroke="rgb(173,193,208)" stroke-width="1.51"></path><path d="M1283,-240L1200,-42L1339,-37Z" fill="rgb(172,196,215)" stroke="rgb(172,196,215)" stroke-width="1.51"></path><path d="M1722,513L1715,371L1565,437Z" fill="rgb(107,144,170)" stroke="rgb(107,144,170)" stroke-width="1.51"></path><path d="M1726,743L1720,612L1570,763Z" fill="rgb(98,126,144)" stroke="rgb(98,126,144)" stroke-width="1.51"></path><path d="M1023,1239L1171,1246L1066,1120Z" fill="rgb(99,123,138)" stroke="rgb(99,123,138)" stroke-width="1.51"></path><path d="M1284,1269L1171,1246L1023,1239Z" fill="rgb(101,120,132)" stroke="rgb(101,120,132)" stroke-width="1.51"></path><path d="M1284,1269L1023,1239L868,1249Z" fill="rgb(99,124,140)" stroke="rgb(99,124,140)" stroke-width="1.51"></path><path d="M237,79L214,235L326,172Z" fill="rgb(205,228,248)" stroke="rgb(205,228,248)" stroke-width="1.51"></path><path d="M326,172L214,235L343,323Z" fill="rgb(188,219,245)" stroke="rgb(188,219,245)" stroke-width="1.51"></path><path d="M251,345L109,298L220,489Z" fill="rgb(175,213,243)" stroke="rgb(175,213,243)" stroke-width="1.51"></path><path d="M483,-51L372,-84L372,67Z" fill="rgb(218,235,250)" stroke="rgb(218,235,250)" stroke-width="1.51"></path><path d="M372,67L237,79L326,172Z" fill="rgb(210,230,248)" stroke="rgb(210,230,248)" stroke-width="1.51"></path><path d="M781,-183L630,-221L657,-96Z" fill="rgb(192,221,245)" stroke="rgb(192,221,245)" stroke-width="1.51"></path><path d="M1025,-237L630,-221L915,-204Z" fill="rgb(175,213,243)" stroke="rgb(175,213,243)" stroke-width="1.51"></path><path d="M1400,1167L1543,1021L1388,1016Z" fill="rgb(104,111,111)" stroke="rgb(104,111,111)" stroke-width="1.51"></path><path d="M49,635L256,601L220,489Z" fill="rgb(149,197,233)" stroke="rgb(149,197,233)" stroke-width="1.51"></path><path d="M49,635L188,704L256,601Z" fill="rgb(154,193,222)" stroke="rgb(154,193,222)" stroke-width="1.51"></path><path d="M579,1126L611,1303L754,1160Z" fill="rgb(124,141,152)" stroke="rgb(124,141,152)" stroke-width="1.51"></path><path d="M398,1173L485,1143L510,1041Z" fill="rgb(140,149,154)" stroke="rgb(140,149,154)" stroke-width="1.51"></path><path d="M311,984L510,1041L346,921Z" fill="rgb(144,160,169)" stroke="rgb(144,160,169)" stroke-width="1.51"></path><path d="M231,965L311,984L346,921Z" fill="rgb(152,166,174)" stroke="rgb(152,166,174)" stroke-width="1.51"></path><path d="M1335,1156L1400,1167L1388,1016Z" fill="rgb(104,113,115)" stroke="rgb(104,113,115)" stroke-width="1.51"></path><path d="M1284,1269L1400,1167L1335,1156Z" fill="rgb(103,114,118)" stroke="rgb(103,114,118)" stroke-width="1.51"></path><path d="M1406,-185L1339,-37L1398,-70Z" fill="rgb(174,192,205)" stroke="rgb(174,192,205)" stroke-width="1.51"></path><path d="M1196,-235L1283,-240L1025,-237Z" fill="rgb(170,200,223)" stroke="rgb(170,200,223)" stroke-width="1.51"></path><path d="M1712,842L1726,743L1570,763Z" fill="rgb(101,121,134)" stroke="rgb(101,121,134)" stroke-width="1.51"></path><path d="M1859,633L1816,467L1722,513Z" fill="rgb(93,132,157)" stroke="rgb(93,132,157)" stroke-width="1.51"></path><path d="M1712,842L1570,763L1593,919Z" fill="rgb(101,118,129)" stroke="rgb(101,118,129)" stroke-width="1.51"></path><path d="M1592,71L1543,-61L1406,72Z" fill="rgb(171,184,193)" stroke="rgb(171,184,193)" stroke-width="1.51"></path><path d="M1699,-40L1543,-61L1592,71Z" fill="rgb(176,182,186)" stroke="rgb(176,182,186)" stroke-width="1.51"></path><path d="M630,-221L492,-176L657,-96Z" fill="rgb(201,226,247)" stroke="rgb(201,226,247)" stroke-width="1.51"></path><path d="M1543,-61L1406,-185L1398,-70Z" fill="rgb(174,189,199)" stroke="rgb(174,189,199)" stroke-width="1.51"></path><path d="M492,-176L372,-84L483,-51Z" fill="rgb(214,233,249)" stroke="rgb(214,233,249)" stroke-width="1.51"></path><path d="M264,-100L237,79L372,67Z" fill="rgb(226,239,251)" stroke="rgb(226,239,251)" stroke-width="1.51"></path><path d="M1718,973L1712,842L1593,919Z" fill="rgb(104,113,115)" stroke="rgb(104,113,115)" stroke-width="1.51"></path><path d="M1171,1246L1284,1269L1176,1147Z" fill="rgb(102,118,128)" stroke="rgb(102,118,128)" stroke-width="1.51"></path><path d="M611,1303L1284,1269L868,1249Z" fill="rgb(100,129,148)" stroke="rgb(100,129,148)" stroke-width="1.51"></path><path d="M311,984L398,1173L510,1041Z" fill="rgb(144,153,157)" stroke="rgb(144,153,157)" stroke-width="1.51"></path><path d="M188,704L183,873L388,737Z" fill="rgb(150,180,203)" stroke="rgb(150,180,203)" stroke-width="1.51"></path><path d="M183,873L231,965L346,921Z" fill="rgb(154,170,180)" stroke="rgb(154,170,180)" stroke-width="1.51"></path><path d="M1804,744L1720,612L1726,743Z" fill="rgb(99,124,139)" stroke="rgb(99,124,139)" stroke-width="1.51"></path><path d="M1859,633L1722,513L1720,612Z" fill="rgb(94,130,153)" stroke="rgb(94,130,153)" stroke-width="1.51"></path><path d="M1722,513L1816,467L1715,371Z" fill="rgb(107,141,163)" stroke="rgb(107,141,163)" stroke-width="1.51"></path><path d="M1715,371L1817,337L1679,237Z" fill="rgb(129,152,168)" stroke="rgb(129,152,168)" stroke-width="1.51"></path><path d="M1679,237L1704,33L1601,161Z" fill="rgb(155,169,178)" stroke="rgb(155,169,178)" stroke-width="1.51"></path><path d="M214,235L109,298L251,345Z" fill="rgb(189,220,245)" stroke="rgb(189,220,245)" stroke-width="1.51"></path><path d="M188,704L104,750L183,873Z" fill="rgb(159,184,204)" stroke="rgb(159,184,204)" stroke-width="1.51"></path><path d="M124,169L109,298L214,235Z" fill="rgb(203,227,247)" stroke="rgb(203,227,247)" stroke-width="1.51"></path><path d="M485,1143L530,1259L579,1126Z" fill="rgb(134,147,153)" stroke="rgb(134,147,153)" stroke-width="1.51"></path><path d="M791,1250L611,1303L868,1249Z" fill="rgb(115,137,150)" stroke="rgb(115,137,150)" stroke-width="1.51"></path><path d="M398,1173L530,1259L485,1143Z" fill="rgb(139,149,154)" stroke="rgb(139,149,154)" stroke-width="1.51"></path><path d="M340,1242L398,1173L218,1151Z" fill="rgb(152,156,156)" stroke="rgb(152,156,156)" stroke-width="1.51"></path><path d="M530,1259L611,1303L579,1126Z" fill="rgb(131,145,153)" stroke="rgb(131,145,153)" stroke-width="1.51"></path><path d="M1816,467L1817,337L1715,371Z" fill="rgb(118,144,163)" stroke="rgb(118,144,163)" stroke-width="1.51"></path><path d="M1793,205L1704,33L1679,237Z" fill="rgb(153,165,172)" stroke="rgb(153,165,172)" stroke-width="1.51"></path><path d="M1543,-61L1554,-187L1406,-185Z" fill="rgb(175,187,195)" stroke="rgb(175,187,195)" stroke-width="1.51"></path><path d="M109,298L68,485L220,489Z" fill="rgb(172,212,242)" stroke="rgb(172,212,242)" stroke-width="1.51"></path><path d="M49,635L104,750L188,704Z" fill="rgb(161,192,216)" stroke="rgb(161,192,216)" stroke-width="1.51"></path><path d="M183,873L73,902L231,965Z" fill="rgb(162,174,183)" stroke="rgb(162,174,183)" stroke-width="1.51"></path><path d="M1712,842L1804,744L1726,743Z" fill="rgb(101,119,128)" stroke="rgb(101,119,128)" stroke-width="1.51"></path><path d="M1817,337L1793,205L1679,237Z" fill="rgb(138,156,167)" stroke="rgb(138,156,167)" stroke-width="1.51"></path><path d="M237,79L124,169L214,235Z" fill="rgb(212,231,249)" stroke="rgb(212,231,249)" stroke-width="1.51"></path><path d="M109,298L-37,318L68,485Z" fill="rgb(191,221,245)" stroke="rgb(191,221,245)" stroke-width="1.51"></path><path d="M48,102L124,169L237,79Z" fill="rgb(224,237,250)" stroke="rgb(224,237,250)" stroke-width="1.51"></path><path d="M492,-176L373,-184L372,-84Z" fill="rgb(218,234,249)" stroke="rgb(218,234,249)" stroke-width="1.51"></path><path d="M372,-84L264,-100L372,67Z" fill="rgb(225,238,251)" stroke="rgb(225,238,251)" stroke-width="1.51"></path><path d="M630,-221L373,-184L492,-176Z" fill="rgb(210,230,248)" stroke="rgb(210,230,248)" stroke-width="1.51"></path><path d="M1543,1021L1718,973L1593,919Z" fill="rgb(104,111,111)" stroke="rgb(104,111,111)" stroke-width="1.51"></path><path d="M1712,842L1819,885L1804,744Z" fill="rgb(103,115,119)" stroke="rgb(103,115,119)" stroke-width="1.51"></path><path d="M1400,1167L1580,1159L1543,1021Z" fill="rgb(105,108,105)" stroke="rgb(105,108,105)" stroke-width="1.51"></path><path d="M1284,1269L1431,1261L1400,1167Z" fill="rgb(103,113,116)" stroke="rgb(103,113,116)" stroke-width="1.51"></path><path d="M1580,1159L1718,973L1543,1021Z" fill="rgb(105,106,101)" stroke="rgb(105,106,101)" stroke-width="1.51"></path><path d="M1532,1234L1580,1159L1400,1167Z" fill="rgb(105,108,106)" stroke="rgb(105,108,106)" stroke-width="1.51"></path><path d="M373,-184L264,-100L372,-84Z" fill="rgb(225,238,251)" stroke="rgb(225,238,251)" stroke-width="1.51"></path><path d="M1699,-40L1554,-187L1543,-61Z" fill="rgb(176,183,187)" stroke="rgb(176,183,187)" stroke-width="1.51"></path><path d="M1406,-185L1554,-187L1283,-240Z" fill="rgb(174,190,202)" stroke="rgb(174,190,202)" stroke-width="1.51"></path><path d="M68,485L49,635L220,489Z" fill="rgb(154,203,240)" stroke="rgb(154,203,240)" stroke-width="1.51"></path><path d="M1816,467L1937,309L1817,337Z" fill="rgb(122,143,156)" stroke="rgb(122,143,156)" stroke-width="1.51"></path><path d="M1804,744L1859,633L1720,612Z" fill="rgb(98,125,140)" stroke="rgb(98,125,140)" stroke-width="1.51"></path><path d="M1943,652L1859,633L1936,735Z" fill="rgb(101,119,129)" stroke="rgb(101,119,129)" stroke-width="1.51"></path><path d="M1805,-67L1699,-40L1704,33Z" fill="rgb(177,178,175)" stroke="rgb(177,178,175)" stroke-width="1.51"></path><path d="M1704,33L1699,-40L1592,71Z" fill="rgb(173,178,181)" stroke="rgb(173,178,181)" stroke-width="1.51"></path><path d="M1431,1261L1532,1234L1400,1167Z" fill="rgb(104,110,109)" stroke="rgb(104,110,109)" stroke-width="1.51"></path><path d="M1804,1004L1819,885L1718,973Z" fill="rgb(105,106,101)" stroke="rgb(105,106,101)" stroke-width="1.51"></path><path d="M1718,973L1819,885L1712,842Z" fill="rgb(104,111,111)" stroke="rgb(104,111,111)" stroke-width="1.51"></path><path d="M1804,1004L1718,973L1719,1178Z" fill="rgb(105,101,91)" stroke="rgb(105,101,91)" stroke-width="1.51"></path><path d="M530,1259L253,1277L611,1303Z" fill="rgb(140,149,154)" stroke="rgb(140,149,154)" stroke-width="1.51"></path><path d="M398,1173L340,1242L530,1259Z" fill="rgb(143,151,155)" stroke="rgb(143,151,155)" stroke-width="1.51"></path><path d="M218,1151L398,1173L311,984Z" fill="rgb(153,157,156)" stroke="rgb(153,157,156)" stroke-width="1.51"></path><path d="M218,1151L311,984L231,965Z" fill="rgb(156,163,163)" stroke="rgb(156,163,163)" stroke-width="1.51"></path><path d="M104,750L73,902L183,873Z" fill="rgb(164,181,194)" stroke="rgb(164,181,194)" stroke-width="1.51"></path><path d="M-31,833L73,902L104,750Z" fill="rgb(170,186,197)" stroke="rgb(170,186,197)" stroke-width="1.51"></path><path d="M1793,205L1836,95L1704,33Z" fill="rgb(161,167,169)" stroke="rgb(161,167,169)" stroke-width="1.51"></path><path d="M1699,-40L1737,-236L1554,-187Z" fill="rgb(177,181,181)" stroke="rgb(177,181,181)" stroke-width="1.51"></path><path d="M1972,216L1836,95L1793,205Z" fill="rgb(152,159,161)" stroke="rgb(152,159,161)" stroke-width="1.51"></path><path d="M1937,309L1793,205L1817,337Z" fill="rgb(135,151,160)" stroke="rgb(135,151,160)" stroke-width="1.51"></path><path d="M49,635L-4,719L104,750Z" fill="rgb(167,195,216)" stroke="rgb(167,195,216)" stroke-width="1.51"></path><path d="M-61,581L-4,719L49,635Z" fill="rgb(170,201,226)" stroke="rgb(170,201,226)" stroke-width="1.51"></path><path d="M-61,581L49,635L68,485Z" fill="rgb(165,205,237)" stroke="rgb(165,205,237)" stroke-width="1.51"></path><path d="M59,1024L218,1151L231,965Z" fill="rgb(163,165,163)" stroke="rgb(163,165,163)" stroke-width="1.51"></path><path d="M-74,209L-37,318L109,298Z" fill="rgb(210,231,248)" stroke="rgb(210,231,248)" stroke-width="1.51"></path><path d="M264,-100L124,-37L237,79Z" fill="rgb(236,244,252)" stroke="rgb(236,244,252)" stroke-width="1.51"></path><path d="M190,-176L124,-37L264,-100Z" fill="rgb(238,245,253)" stroke="rgb(238,245,253)" stroke-width="1.51"></path><path d="M124,-37L48,102L237,79Z" fill="rgb(235,244,252)" stroke="rgb(235,244,252)" stroke-width="1.51"></path><path d="M1936,735L1859,633L1804,744Z" fill="rgb(101,119,129)" stroke="rgb(101,119,129)" stroke-width="1.51"></path><path d="M1719,1178L1718,973L1580,1159Z" fill="rgb(105,102,92)" stroke="rgb(105,102,92)" stroke-width="1.51"></path><path d="M1936,735L1804,744L1819,885Z" fill="rgb(103,114,118)" stroke="rgb(103,114,118)" stroke-width="1.51"></path><path d="M1859,633L1985,501L1816,467Z" fill="rgb(96,129,150)" stroke="rgb(96,129,150)" stroke-width="1.51"></path><path d="M1985,501L1937,309L1816,467Z" fill="rgb(115,137,151)" stroke="rgb(115,137,151)" stroke-width="1.51"></path><path d="M-74,209L109,298L124,169Z" fill="rgb(214,233,249)" stroke="rgb(214,233,249)" stroke-width="1.51"></path><path d="M1978,846L1936,735L1819,885Z" fill="rgb(104,110,109)" stroke="rgb(104,110,109)" stroke-width="1.51"></path><path d="M-63,431L-61,581L68,485Z" fill="rgb(172,212,242)" stroke="rgb(172,212,242)" stroke-width="1.51"></path><path d="M-37,318L-63,431L68,485Z" fill="rgb(188,219,245)" stroke="rgb(188,219,245)" stroke-width="1.51"></path><path d="M97,-234L190,-176L373,-184Z" fill="rgb(235,244,252)" stroke="rgb(235,244,252)" stroke-width="1.51"></path><path d="M373,-184L190,-176L264,-100Z" fill="rgb(230,241,251)" stroke="rgb(230,241,251)" stroke-width="1.51"></path><path d="M-53,97L-74,209L48,102Z" fill="rgb(233,243,252)" stroke="rgb(233,243,252)" stroke-width="1.51"></path><path d="M1971,58L1805,-67L1836,95Z" fill="rgb(173,170,163)" stroke="rgb(173,170,163)" stroke-width="1.51"></path><path d="M1836,95L1805,-67L1704,33Z" fill="rgb(174,174,171)" stroke="rgb(174,174,171)" stroke-width="1.51"></path><path d="M1696,1287L1719,1178L1580,1159Z" fill="rgb(105,102,93)" stroke="rgb(105,102,93)" stroke-width="1.51"></path><path d="M1925,1005L1978,846L1819,885Z" fill="rgb(105,105,97)" stroke="rgb(105,105,97)" stroke-width="1.51"></path><path d="M2056,510L1985,501L1943,652Z" fill="rgb(97,127,146)" stroke="rgb(97,127,146)" stroke-width="1.51"></path><path d="M1943,652L1985,501L1859,633Z" fill="rgb(99,124,140)" stroke="rgb(99,124,140)" stroke-width="1.51"></path><path d="M73,902L59,1024L231,965Z" fill="rgb(167,173,176)" stroke="rgb(167,173,176)" stroke-width="1.51"></path><path d="M-69,1054L59,1024L73,902Z" fill="rgb(175,176,172)" stroke="rgb(175,176,172)" stroke-width="1.51"></path><path d="M-31,833L104,750L-4,719Z" fill="rgb(171,191,206)" stroke="rgb(171,191,206)" stroke-width="1.51"></path><path d="M-184,696L-31,833L-4,719Z" fill="rgb(173,193,209)" stroke="rgb(173,193,209)" stroke-width="1.51"></path><path d="M49,1250L253,1277L218,1151Z" fill="rgb(164,163,158)" stroke="rgb(164,163,158)" stroke-width="1.51"></path><path d="M218,1151L253,1277L340,1242Z" fill="rgb(156,158,157)" stroke="rgb(156,158,157)" stroke-width="1.51"></path><path d="M340,1242L253,1277L530,1259Z" fill="rgb(147,154,156)" stroke="rgb(147,154,156)" stroke-width="1.51"></path><path d="M1937,309L1972,216L1793,205Z" fill="rgb(142,152,156)" stroke="rgb(142,152,156)" stroke-width="1.51"></path><path d="M2119,379L1972,216L1937,309Z" fill="rgb(134,147,153)" stroke="rgb(134,147,153)" stroke-width="1.51"></path><path d="M-184,382L-179,429L-63,431Z" fill="rgb(187,219,245)" stroke="rgb(187,219,245)" stroke-width="1.51"></path><path d="M-63,431L-149,585L-61,581Z" fill="rgb(167,208,241)" stroke="rgb(167,208,241)" stroke-width="1.51"></path><path d="M48,102L-74,209L124,169Z" fill="rgb(226,239,251)" stroke="rgb(226,239,251)" stroke-width="1.51"></path><path d="M-53,97L48,102L-35,-87Z" fill="rgb(249,251,254)" stroke="rgb(249,251,254)" stroke-width="1.51"></path><path d="M1789,-194L1699,-40L1805,-67Z" fill="rgb(177,177,173)" stroke="rgb(177,177,173)" stroke-width="1.51"></path><path d="M1789,-194L1737,-236L1699,-40Z" fill="rgb(177,178,175)" stroke="rgb(177,178,175)" stroke-width="1.51"></path><path d="M1554,-187L1737,-236L1283,-240Z" fill="rgb(175,186,193)" stroke="rgb(175,186,193)" stroke-width="1.51"></path><path d="M-35,-87L48,102L124,-37Z" fill="rgb(251,252,255)" stroke="rgb(251,252,255)" stroke-width="1.51"></path><path d="M2100,768L2127,591L1943,652Z" fill="rgb(101,119,129)" stroke="rgb(101,119,129)" stroke-width="1.51"></path><path d="M1925,1005L1819,885L1804,1004Z" fill="rgb(105,103,95)" stroke="rgb(105,103,95)" stroke-width="1.51"></path><path d="M1719,1178L1813,1161L1804,1004Z" fill="rgb(105,99,84)" stroke="rgb(105,99,84)" stroke-width="1.51"></path><path d="M1532,1234L1696,1287L1580,1159Z" fill="rgb(105,105,98)" stroke="rgb(105,105,98)" stroke-width="1.51"></path><path d="M1431,1261L1696,1287L1532,1234Z" fill="rgb(105,106,102)" stroke="rgb(105,106,102)" stroke-width="1.51"></path><path d="M1284,1269L1696,1287L1431,1261Z" fill="rgb(104,109,108)" stroke="rgb(104,109,108)" stroke-width="1.51"></path><path d="M1832,1310L1696,1287L1284,1269Z" fill="rgb(105,105,98)" stroke="rgb(105,105,98)" stroke-width="1.51"></path><path d="M1953,-174L1789,-194L1805,-67Z" fill="rgb(177,174,166)" stroke="rgb(177,174,166)" stroke-width="1.51"></path><path d="M1832,1310L1813,1161L1719,1178Z" fill="rgb(105,98,84)" stroke="rgb(105,98,84)" stroke-width="1.51"></path><path d="M1813,1161L1925,1005L1804,1004Z" fill="rgb(105,98,82)" stroke="rgb(105,98,82)" stroke-width="1.51"></path><path d="M1985,501L2119,379L1937,309Z" fill="rgb(120,139,151)" stroke="rgb(120,139,151)" stroke-width="1.51"></path><path d="M2127,591L2056,510L1943,652Z" fill="rgb(98,125,142)" stroke="rgb(98,125,142)" stroke-width="1.51"></path><path d="M-61,581L-184,696L-4,719Z" fill="rgb(170,199,222)" stroke="rgb(170,199,222)" stroke-width="1.51"></path><path d="M-69,1054L42,1129L59,1024Z" fill="rgb(177,171,162)" stroke="rgb(177,171,162)" stroke-width="1.51"></path><path d="M-179,429L-149,585L-63,431Z" fill="rgb(175,213,243)" stroke="rgb(175,213,243)" stroke-width="1.51"></path><path d="M-63,431L-37,318L-184,382Z" fill="rgb(194,222,246)" stroke="rgb(194,222,246)" stroke-width="1.51"></path><path d="M59,1024L42,1129L218,1151Z" fill="rgb(169,166,159)" stroke="rgb(169,166,159)" stroke-width="1.51"></path><path d="M-69,1054L73,902L-31,833Z" fill="rgb(177,181,182)" stroke="rgb(177,181,182)" stroke-width="1.51"></path><path d="M1972,216L1971,58L1836,95Z" fill="rgb(160,161,157)" stroke="rgb(160,161,157)" stroke-width="1.51"></path><path d="M2092,86L1971,58L1972,216Z" fill="rgb(160,161,157)" stroke="rgb(160,161,157)" stroke-width="1.51"></path><path d="M-170,-236L97,-234L1025,-237Z" fill="rgb(226,239,251)" stroke="rgb(226,239,251)" stroke-width="1.51"></path><path d="M1025,-237L97,-234L630,-221Z" fill="rgb(202,226,247)" stroke="rgb(202,226,247)" stroke-width="1.51"></path><path d="M630,-221L97,-234L373,-184Z" fill="rgb(222,237,250)" stroke="rgb(222,237,250)" stroke-width="1.51"></path><path d="M190,-176L97,-234L124,-37Z" fill="rgb(243,248,253)" stroke="rgb(243,248,253)" stroke-width="1.51"></path><path d="M-184,382L-37,318L-74,209Z" fill="rgb(206,228,248)" stroke="rgb(206,228,248)" stroke-width="1.51"></path><path d="M-215,161L-74,209L-53,97Z" fill="rgb(230,241,251)" stroke="rgb(230,241,251)" stroke-width="1.51"></path><path d="M-215,161L-184,382L-74,209Z" fill="rgb(215,233,249)" stroke="rgb(215,233,249)" stroke-width="1.51"></path><path d="M97,-234L-35,-87L124,-37Z" fill="rgb(250,252,254)" stroke="rgb(250,252,254)" stroke-width="1.51"></path><path d="M-149,585L-184,696L-61,581Z" fill="rgb(169,202,229)" stroke="rgb(169,202,229)" stroke-width="1.51"></path><path d="M-179,429L-184,696L-149,585Z" fill="rgb(167,206,237)" stroke="rgb(167,206,237)" stroke-width="1.51"></path><path d="M-184,382L-184,696L-179,429Z" fill="rgb(172,211,242)" stroke="rgb(172,211,242)" stroke-width="1.51"></path><path d="M42,1129L49,1250L218,1151Z" fill="rgb(170,166,159)" stroke="rgb(170,166,159)" stroke-width="1.51"></path><path d="M-176,970L-69,1054L-31,833Z" fill="rgb(176,180,179)" stroke="rgb(176,180,179)" stroke-width="1.51"></path><path d="M2056,510L2119,379L1985,501Z" fill="rgb(109,134,149)" stroke="rgb(109,134,149)" stroke-width="1.51"></path><path d="M2127,591L2119,379L2056,510Z" fill="rgb(104,131,149)" stroke="rgb(104,131,149)" stroke-width="1.51"></path><path d="M1971,58L1968,-91L1805,-67Z" fill="rgb(178,171,160)" stroke="rgb(178,171,160)" stroke-width="1.51"></path><path d="M1789,-194L1953,-174L1737,-236Z" fill="rgb(177,174,168)" stroke="rgb(177,174,168)" stroke-width="1.51"></path><path d="M2112,-106L1968,-91L1971,58Z" fill="rgb(178,171,160)" stroke="rgb(178,171,160)" stroke-width="1.51"></path><path d="M-50,1134L49,1250L42,1129Z" fill="rgb(177,170,160)" stroke="rgb(177,170,160)" stroke-width="1.51"></path><path d="M2100,768L1936,735L1978,846Z" fill="rgb(104,112,114)" stroke="rgb(104,112,114)" stroke-width="1.51"></path><path d="M2100,768L1943,652L1936,735Z" fill="rgb(103,116,123)" stroke="rgb(103,116,123)" stroke-width="1.51"></path><path d="M2137,875L2100,768L1978,846Z" fill="rgb(104,109,107)" stroke="rgb(104,109,107)" stroke-width="1.51"></path><path d="M2137,875L1978,846L2124,978Z" fill="rgb(105,105,98)" stroke="rgb(105,105,98)" stroke-width="1.51"></path><path d="M1962,1276L1960,1124L1813,1161Z" fill="rgb(105,94,74)" stroke="rgb(105,94,74)" stroke-width="1.51"></path><path d="M1813,1161L1960,1124L1925,1005Z" fill="rgb(105,94,75)" stroke="rgb(105,94,75)" stroke-width="1.51"></path><path d="M-69,1054L-50,1134L42,1129Z" fill="rgb(178,171,160)" stroke="rgb(178,171,160)" stroke-width="1.51"></path><path d="M-180,1167L-50,1134L-69,1054Z" fill="rgb(178,171,160)" stroke="rgb(178,171,160)" stroke-width="1.51"></path><path d="M-184,696L-188,855L-31,833Z" fill="rgb(174,190,202)" stroke="rgb(174,190,202)" stroke-width="1.51"></path><path d="M-215,161L-188,855L-184,696Z" fill="rgb(167,206,237)" stroke="rgb(167,206,237)" stroke-width="1.51"></path><path d="M97,-234L-32,-182L-35,-87Z" fill="rgb(254,254,255)" stroke="rgb(254,254,255)" stroke-width="1.51"></path><path d="M-211,36L-215,161L-53,97Z" fill="rgb(240,246,253)" stroke="rgb(240,246,253)" stroke-width="1.51"></path><path d="M1696,1287L1832,1310L1719,1178Z" fill="rgb(105,100,87)" stroke="rgb(105,100,87)" stroke-width="1.51"></path><path d="M611,1303L1832,1310L1284,1269Z" fill="rgb(102,117,126)" stroke="rgb(102,117,126)" stroke-width="1.51"></path><path d="M1968,-91L1953,-174L1805,-67Z" fill="rgb(178,171,161)" stroke="rgb(178,171,161)" stroke-width="1.51"></path><path d="M2112,-106L1953,-174L1968,-91Z" fill="rgb(178,171,160)" stroke="rgb(178,171,160)" stroke-width="1.51"></path><path d="M2119,379L2120,195L1972,216Z" fill="rgb(140,149,154)" stroke="rgb(140,149,154)" stroke-width="1.51"></path><path d="M2127,591L2120,195L2119,379Z" fill="rgb(121,139,151)" stroke="rgb(121,139,151)" stroke-width="1.51"></path><path d="M2120,195L2092,86L1972,216Z" fill="rgb(154,157,156)" stroke="rgb(154,157,156)" stroke-width="1.51"></path><path d="M-184,382L-215,161L-184,696Z" fill="rgb(187,219,245)" stroke="rgb(187,219,245)" stroke-width="1.51"></path><path d="M-211,36L-53,97L-35,-87Z" fill="rgb(253,253,255)" stroke="rgb(253,253,255)" stroke-width="1.51"></path><path d="M-188,855L-176,970L-31,833Z" fill="rgb(176,184,188)" stroke="rgb(176,184,188)" stroke-width="1.51"></path><path d="M-180,1167L-11,1271L-50,1134Z" fill="rgb(178,171,160)" stroke="rgb(178,171,160)" stroke-width="1.51"></path><path d="M-50,1134L-11,1271L49,1250Z" fill="rgb(178,171,160)" stroke="rgb(178,171,160)" stroke-width="1.51"></path><path d="M49,1250L-11,1271L253,1277Z" fill="rgb(170,166,159)" stroke="rgb(170,166,159)" stroke-width="1.51"></path><path d="M253,1277L-202,1304L611,1303Z" fill="rgb(160,161,157)" stroke="rgb(160,161,157)" stroke-width="1.51"></path><path d="M2124,978L1978,846L1925,1005Z" fill="rgb(105,102,92)" stroke="rgb(105,102,92)" stroke-width="1.51"></path><path d="M2100,768L2137,875L2127,591Z" fill="rgb(103,115,119)" stroke="rgb(103,115,119)" stroke-width="1.51"></path><path d="M2127,591L2137,875L2120,195Z" fill="rgb(97,127,146)" stroke="rgb(97,127,146)" stroke-width="1.51"></path><path d="M2124,978L1925,1005L1960,1124Z" fill="rgb(105,96,80)" stroke="rgb(105,96,80)" stroke-width="1.51"></path><path d="M-227,-41L-211,36L-35,-87Z" fill="rgb(255,255,255)" stroke="rgb(255,255,255)" stroke-width="1.51"></path><path d="M2138,1180L2124,978L1960,1124Z" fill="rgb(105,94,74)" stroke="rgb(105,94,74)" stroke-width="1.51"></path><path d="M1832,1310L1962,1276L1813,1161Z" fill="rgb(105,95,78)" stroke="rgb(105,95,78)" stroke-width="1.51"></path><path d="M-170,-236L-227,-41L-35,-87Z" fill="rgb(255,255,255)" stroke="rgb(255,255,255)" stroke-width="1.51"></path><path d="M-211,36L-227,-41L-215,161Z" fill="rgb(247,250,254)" stroke="rgb(247,250,254)" stroke-width="1.51"></path><path d="M-215,161L-202,1304L-188,855Z" fill="rgb(174,192,206)" stroke="rgb(174,192,206)" stroke-width="1.51"></path><path d="M2120,195L2112,-106L2092,86Z" fill="rgb(169,166,159)" stroke="rgb(169,166,159)" stroke-width="1.51"></path><path d="M2092,86L2112,-106L1971,58Z" fill="rgb(176,170,159)" stroke="rgb(176,170,159)" stroke-width="1.51"></path><path d="M-176,970L-180,1167L-69,1054Z" fill="rgb(178,172,162)" stroke="rgb(178,172,162)" stroke-width="1.51"></path><path d="M-202,1304L-180,1167L-176,970Z" fill="rgb(178,171,160)" stroke="rgb(178,171,160)" stroke-width="1.51"></path><path d="M-202,1304L-176,970L-188,855Z" fill="rgb(177,173,165)" stroke="rgb(177,173,165)" stroke-width="1.51"></path><path d="M1283,-240L-170,-236L1025,-237Z" fill="rgb(190,220,245)" stroke="rgb(190,220,245)" stroke-width="1.51"></path><path d="M97,-234L-170,-236L-32,-182Z" fill="rgb(255,255,255)" stroke="rgb(255,255,255)" stroke-width="1.51"></path><path d="M-32,-182L-170,-236L-35,-87Z" fill="rgb(255,255,255)" stroke="rgb(255,255,255)" stroke-width="1.51"></path><path d="M1832,1310L2063,1250L1962,1276Z" fill="rgb(105,94,74)" stroke="rgb(105,94,74)" stroke-width="1.51"></path><path d="M1962,1276L2063,1250L1960,1124Z" fill="rgb(105,94,74)" stroke="rgb(105,94,74)" stroke-width="1.51"></path><path d="M2112,-106L2099,-219L1953,-174Z" fill="rgb(178,171,160)" stroke="rgb(178,171,160)" stroke-width="1.51"></path><path d="M1953,-174L2099,-219L1737,-236Z" fill="rgb(178,171,160)" stroke="rgb(178,171,160)" stroke-width="1.51"></path><path d="M2124,978L2138,1180L2137,875Z" fill="rgb(105,98,83)" stroke="rgb(105,98,83)" stroke-width="1.51"></path><path d="M2063,1250L2138,1180L1960,1124Z" fill="rgb(105,94,74)" stroke="rgb(105,94,74)" stroke-width="1.51"></path><path d="M-180,1167L-202,1304L-11,1271Z" fill="rgb(178,171,160)" stroke="rgb(178,171,160)" stroke-width="1.51"></path><path d="M-11,1271L-202,1304L253,1277Z" fill="rgb(177,170,160)" stroke="rgb(177,170,160)" stroke-width="1.51"></path><path d="M611,1303L-202,1304L1832,1310Z" fill="rgb(116,137,151)" stroke="rgb(116,137,151)" stroke-width="1.51"></path><path d="M-227,-41L-202,1304L-215,161Z" fill="rgb(177,214,243)" stroke="rgb(177,214,243)" stroke-width="1.51"></path></svg>